<svg xmlns="http://www.w3.org/2000/svg" width="75" height="75" viewBox="0 0 75 75"><rect width="100%" height="100%" fill="#DDDDDD"/><path fill="#999999" d="M14.515 32.385h6.99v.75q0 .33-.07.54-.07.21-.14.35l-3.83 7.89q-.12.25-.34.42-.22.17-.58.17h-1.25l3.91-7.74q.13-.23.26-.43.13-.2.29-.38h-4.84q-.16 0-.28-.12-.12-.12-.12-.28v-1.17Zm10.67 1.57-.36 2.1q.34-.07.64-.1.31-.03.6-.03.8 0 1.41.24.6.24 1.02.66.41.42.62.98.21.56.21 1.21 0 .81-.28 1.47-.29.67-.79 1.14-.5.47-1.19.73t-1.51.26q-.47 0-.9-.1-.43-.09-.8-.26-.37-.16-.69-.38-.32-.21-.57-.45l.53-.73q.17-.24.44-.24.17 0 .36.11l.41.25q.24.13.56.24.31.11.76.11.48 0 .84-.15.37-.16.61-.43.24-.28.36-.66t.12-.83q0-.83-.47-1.29-.48-.47-1.42-.47-.72 0-1.48.27l-1.08-.31.84-4.91h5v.73q0 .37-.23.6-.23.24-.78.24h-2.78Zm15.68 6.23-.91.91-2.38-2.38-2.39 2.39-.92-.9 2.4-2.4-2.29-2.29.91-.91 2.29 2.29 2.26-2.27.93.91-2.28 2.27 2.38 2.38Zm4.81-7.8h7v.75q0 .33-.07.54-.07.21-.14.35l-3.84 7.89q-.12.25-.34.42-.21.17-.58.17h-1.25l3.91-7.74q.14-.23.27-.43.12-.2.29-.38h-4.85q-.16 0-.28-.12-.12-.12-.12-.28v-1.17Zm10.67 1.57-.36 2.1q.34-.07.65-.1t.59-.03q.8 0 1.41.24.61.24 1.02.66.41.42.62.98.21.56.21 1.21 0 .81-.28 1.47-.28.67-.79 1.14-.5.47-1.19.73t-1.5.26q-.48 0-.9-.1-.43-.09-.81-.26-.37-.16-.69-.38-.32-.21-.57-.45l.53-.73q.17-.24.44-.24.18 0 .36.11t.42.25q.23.13.55.24.32.11.77.11.47 0 .84-.15.36-.16.6-.43.24-.28.37-.66.12-.38.12-.83 0-.83-.48-1.29-.48-.47-1.42-.47-.72 0-1.48.27l-1.07-.31.84-4.91h4.99v.73q0 .37-.23.6-.23.24-.78.24h-2.78Z"/></svg>